<svg width="265" height="160" viewBox="0 0 265 160" fill="none" xmlns="http://www.w3.org/2000/svg">
<g clip-path="url(#clip0)">
<path d="M180.286 91.34L182.558 90.9461C182.776 90.9078 182.992 90.8611 183.21 90.8215C179.614 88.5831 176.883 85.1847 175.468 81.1846C174.053 77.1846 174.036 72.8208 175.422 68.8102C176.807 64.7997 179.512 61.3809 183.092 59.1156C186.672 56.8503 190.913 55.8732 195.12 56.3448L192.142 63.4506L199.198 57.2729C199.215 57.277 199.231 57.2824 199.246 57.2891C201.557 58.1051 203.685 59.3694 205.508 61.0098C207.331 62.6503 208.815 64.6348 209.873 66.85C210.931 69.0652 211.544 71.4677 211.677 73.9204C211.809 76.3731 211.458 78.8278 210.644 81.1446C210.526 81.4815 210.385 81.8031 210.251 82.1287C212.243 81.1252 214.154 79.9569 215.712 78.4611C218.867 75.4299 220.596 71.2469 222.527 66.0935C226.354 55.8811 230.039 45.521 233.577 35.1382C229.675 33.0212 226.654 29.5788 225.056 25.4291C223.458 21.2795 223.388 16.6946 224.859 12.4981C225.049 11.9582 225.268 11.4383 225.501 10.9277C225.559 10.7999 225.618 10.6729 225.679 10.5469C225.915 10.0574 226.165 9.57779 226.439 9.11749C226.484 9.04202 226.534 8.97141 226.58 8.89676C226.818 8.50866 227.07 8.13204 227.334 7.76691C227.433 7.62982 227.531 7.49311 227.633 7.35928C227.933 6.96612 228.244 6.58357 228.571 6.21834C228.68 6.09614 228.797 5.98196 228.909 5.86292C229.16 5.59677 229.419 5.33865 229.684 5.08856C229.824 4.9569 229.963 4.82429 230.106 4.6973C230.143 4.66472 230.177 4.62916 230.215 4.59685C230.216 4.59923 230.218 4.60179 230.22 4.60414C233.505 1.73317 237.691 0.107317 242.048 0.0091734C246.405 -0.0889703 250.659 1.34679 254.07 4.06693L250.195 13.3138L257.171 7.20969C259.612 10.3283 260.996 14.1476 261.12 18.1102C261.244 22.0728 260.102 25.9715 257.86 29.2376C257.867 29.2398 257.873 29.2416 257.88 29.2439C257.804 29.3561 257.717 29.4588 257.639 29.5691C257.492 29.776 257.341 29.9792 257.187 30.1787C256.989 30.4346 256.783 30.6819 256.573 30.9258C256.414 31.11 256.258 31.2956 256.093 31.4727C255.851 31.7318 255.598 31.9771 255.343 32.2211C255.195 32.3634 255.052 32.5129 254.899 32.6499C254.498 33.0091 254.084 33.3499 253.655 33.6723C253.504 33.7852 253.346 33.8848 253.192 33.993C252.891 34.2052 252.589 34.4144 252.276 34.6082C252.082 34.7283 251.883 34.8382 251.685 34.9511C251.399 35.1147 251.11 35.2733 250.816 35.4214C250.607 35.5264 250.396 35.6261 250.184 35.7232C249.881 35.8614 249.575 35.9896 249.265 36.1116C249.058 36.1934 248.851 36.2763 248.64 36.3507C248.293 36.4734 247.94 36.58 247.586 36.682C247.407 36.7336 247.231 36.7926 247.05 36.8388C246.518 36.9748 245.98 37.0906 245.436 37.1793C245.334 37.1961 245.229 37.2024 245.127 37.2174C244.676 37.2832 244.222 37.3363 243.765 37.3688C243.568 37.3826 243.371 37.3846 243.174 37.3923C242.804 37.4068 242.434 37.4141 242.062 37.4061C241.846 37.4015 241.629 37.3903 241.411 37.378C241.049 37.3574 240.687 37.3258 240.324 37.2831C240.11 37.2582 239.896 37.2335 239.681 37.2009C239.292 37.1418 238.904 37.0645 238.516 36.9798C238.491 36.9743 238.465 36.9709 238.44 36.9652C236.946 41.3456 235.426 45.7165 233.877 50.0781C235.766 48.3754 237.981 47.0776 240.388 46.2643C242.795 45.451 245.342 45.1394 247.873 45.3486C250.404 45.5578 252.866 46.2834 255.108 47.4809C257.349 48.6783 259.323 50.3224 260.908 52.3122L254.459 59.4633L263.191 55.9683C265.312 60.4277 265.58 65.549 263.937 70.2067C263.368 71.8435 262.57 73.391 261.567 74.8032C259.41 77.8629 256.385 80.202 252.886 81.5172C249.386 82.8323 245.573 83.0627 241.942 82.1785C238.31 81.2944 235.027 79.3365 232.519 76.5587C230.01 73.781 228.392 70.3116 227.874 66.6006C227.71 67.0401 227.552 67.485 227.387 67.924C225.683 72.4705 223.562 78.1285 219.303 82.2192C216.416 84.9919 212.864 86.751 209.456 88.2382C207.237 89.2065 204.988 90.1017 202.71 90.9239C200.178 92.4636 197.316 93.3779 194.362 93.5915C190.767 94.5927 187.127 95.4285 183.453 96.0737L181.162 96.4697C179.104 96.8233 176.993 97.1874 174.897 97.6069C175.199 97.6966 175.501 97.7822 175.801 97.8881C179.534 99.2055 182.753 101.679 184.992 104.951C187.232 108.223 188.375 112.124 188.258 116.09L173.896 120.51L186.892 122.58C185.703 125.509 183.793 128.088 181.34 130.077C178.888 132.066 175.972 133.399 172.867 133.951C169.761 134.504 166.566 134.258 163.581 133.237C160.595 132.216 157.917 130.453 155.795 128.113C155.927 128.556 156.059 128.999 156.192 129.44C156.456 130.318 156.718 131.191 156.969 132.056C160.389 143.837 158.917 153.105 152.824 158.151L149.518 154.138C155.448 149.227 153.608 139.106 151.985 133.51C151.738 132.661 151.481 131.803 151.221 130.941C148.994 123.522 146.469 115.112 149.739 107.385C154.668 95.738 168.872 93.2994 180.286 91.34Z" fill="#F2F2F2"/>
<path d="M176.076 159.662H75.4481C72.1482 159.662 68.9835 158.348 66.6501 156.008C64.3167 153.669 63.0059 150.495 63.0059 147.187V100.962C63.0059 100.291 63.1422 99.6269 63.4067 99.0103C63.6711 98.3936 64.0581 97.8374 64.544 97.3756L117.867 46.6966C119.999 44.6704 122.824 43.541 125.762 43.541C128.699 43.541 131.525 44.6704 133.657 46.6966L184.497 95.0163C185.767 96.2234 186.779 97.6772 187.47 99.2891C188.161 100.901 188.518 102.637 188.518 104.392V147.187C188.518 148.825 188.196 150.447 187.571 151.961C186.945 153.474 186.029 154.85 184.874 156.008C183.718 157.166 182.347 158.085 180.837 158.712C179.327 159.339 177.71 159.662 176.076 159.662Z" fill="#3F3D56"/>
<path opacity="0.1" d="M63.0059 101.721H187.472V152.129C187.472 154.127 186.68 156.043 185.271 157.456C183.862 158.868 181.951 159.662 179.959 159.662H70.5189C68.5263 159.662 66.6153 158.868 65.2064 157.456C63.7974 156.043 63.0059 154.127 63.0059 152.129V101.721Z" fill="black"/>
<path d="M165.068 62.002H86.1945C82.4137 62.002 79.3486 65.0751 79.3486 68.866V147.948C79.3486 151.738 82.4137 154.812 86.1945 154.812H165.068C168.849 154.812 171.914 151.738 171.914 147.948V68.866C171.914 65.0751 168.849 62.002 165.068 62.002Z" fill="#006ADA"/>
<path opacity="0.1" d="M171.914 103.806V154.812H79.3486V103.806L125.631 126.235L171.914 103.806Z" fill="black"/>
<path d="M125.631 129.119L66.3282 100.38C65.9614 100.202 65.5556 100.121 65.1488 100.143C64.742 100.166 64.3476 100.291 64.0024 100.508C63.6573 100.725 63.3728 101.027 63.1756 101.384C62.9785 101.742 62.875 102.143 62.875 102.552V151.998C62.875 152.987 63.0693 153.967 63.4469 154.881C63.8245 155.795 64.3779 156.625 65.0755 157.324C65.7732 158.024 66.6014 158.579 67.5129 158.957C68.4244 159.336 69.4014 159.531 70.388 159.531H180.874C181.861 159.531 182.838 159.336 183.749 158.957C184.661 158.579 185.489 158.024 186.186 157.324C186.884 156.625 187.437 155.795 187.815 154.881C188.193 153.967 188.387 152.987 188.387 151.998V103.399C188.387 102.9 188.261 102.41 188.02 101.974C187.779 101.538 187.432 101.17 187.011 100.905C186.59 100.64 186.109 100.487 185.612 100.46C185.116 100.432 184.621 100.532 184.173 100.748L125.631 129.119Z" fill="#3F3D56"/>
<path d="M113.21 70.5226H87.3232V74.1931H113.21V70.5226Z" fill="#F2F2F2"/>
<path d="M162.109 83.8936H85.2324V85.991H162.109V83.8936Z" fill="#F2F2F2"/>
<path d="M162.109 90.9722H85.2324V93.0696H162.109V90.9722Z" fill="#F2F2F2"/>
<path d="M162.109 98.0508H85.2324V100.148H162.109V98.0508Z" fill="#F2F2F2"/>
<path d="M15.9385 159.531H231.401" stroke="#3F3D56" stroke-miterlimit="10"/>
<path d="M0 127.247C0 142.705 9.67189 155.213 21.6245 155.213L0 127.247Z" fill="#46455B"/>
<path d="M21.625 155.213C21.625 139.582 32.4183 126.933 45.7567 126.933L21.625 155.213Z" fill="#006ADA"/>
<path d="M7.83496 128.648C7.83496 143.332 14.0025 155.213 21.6245 155.213L7.83496 128.648Z" fill="#006ADA"/>
<path d="M21.625 155.213C21.625 135.239 34.1003 119.077 49.5175 119.077L21.625 155.213Z" fill="#46455B"/>
<path d="M17.0762 155.41C17.0762 155.41 20.1429 155.316 21.0671 154.656C21.9913 153.996 25.7845 153.208 26.0138 154.266C26.243 155.325 30.6225 159.53 27.1602 159.558C23.6979 159.586 19.1153 159.017 18.1929 158.454C17.2704 157.89 17.0762 155.41 17.0762 155.41Z" fill="#A8A8A8"/>
<path opacity="0.2" d="M27.2219 159.189C23.7596 159.217 19.1771 158.649 18.2547 158.085C17.5522 157.656 17.2722 156.117 17.1786 155.406C17.1137 155.409 17.0762 155.41 17.0762 155.41C17.0762 155.41 17.2704 157.89 18.1929 158.454C19.1153 159.017 23.6979 159.586 27.1602 159.558C28.1596 159.55 28.5048 159.193 28.4859 158.665C28.347 158.984 27.9658 159.183 27.2219 159.189Z" fill="black"/>
<path d="M188.192 42.6743C188.035 44.0782 186.967 45.209 186.572 46.5648C185.976 48.6054 187.006 50.7952 188.415 52.3844C189.551 53.6533 190.928 54.6833 192.464 55.4148C194.001 56.1463 195.667 56.5648 197.366 56.646C197.865 56.69 198.368 56.635 198.846 56.4842C199.273 56.3121 199.657 56.0488 199.972 55.7127C201.033 54.6446 201.603 53.1647 201.83 51.6746C202.057 50.1845 201.968 48.6664 201.88 47.1616C201.88 46.8506 201.824 46.5421 201.713 46.2514C201.569 45.9744 201.37 45.7295 201.129 45.5311C200.365 44.8286 199.524 44.2158 198.621 43.7047C198.213 43.5214 197.854 43.2454 197.571 42.8985C197.4 42.6014 197.29 42.2734 197.246 41.9334L196.969 40.5179C196.919 40.11 196.78 39.7182 196.562 39.3705C196.073 38.7086 195.136 38.6185 194.315 38.5862L191.307 38.4679C190.371 38.4311 189.138 38.1621 188.225 38.3463C187.371 38.5184 187.655 39.3066 187.81 40.0242C188.035 40.8907 188.163 41.7795 188.192 42.6743Z" fill="#A0616A"/>
<path opacity="0.1" d="M188.192 42.6743C188.035 44.0782 186.967 45.209 186.572 46.5648C185.976 48.6054 187.006 50.7952 188.415 52.3844C189.551 53.6533 190.928 54.6833 192.464 55.4148C194.001 56.1463 195.667 56.5648 197.366 56.646C197.865 56.69 198.368 56.635 198.846 56.4842C199.273 56.3121 199.657 56.0488 199.972 55.7127C201.033 54.6446 201.603 53.1647 201.83 51.6746C202.057 50.1845 201.968 48.6664 201.88 47.1616C201.88 46.8506 201.824 46.5421 201.713 46.2514C201.569 45.9744 201.37 45.7295 201.129 45.5311C200.365 44.8286 199.524 44.2158 198.621 43.7047C198.213 43.5214 197.854 43.2454 197.571 42.8985C197.4 42.6014 197.29 42.2734 197.246 41.9334L196.969 40.5179C196.919 40.11 196.78 39.7182 196.562 39.3705C196.073 38.7086 195.136 38.6185 194.315 38.5862L191.307 38.4679C190.371 38.4311 189.138 38.1621 188.225 38.3463C187.371 38.5184 187.655 39.3066 187.81 40.0242C188.035 40.8907 188.163 41.7795 188.192 42.6743Z" fill="black"/>
<path d="M207.331 105.861C206.905 110.547 206.478 115.231 206.052 119.916C205.718 123.602 205.378 127.303 204.724 130.942C204.498 132.196 204.233 133.444 203.919 134.68C203.045 138.114 201.777 141.47 201.368 144.991C201.355 145.092 201.344 145.196 201.334 145.299C201.288 146.078 201.141 146.847 200.897 147.587C200.692 148.124 200.378 148.614 200.156 149.145C199.715 150.207 199.657 151.381 199.603 152.532C198.051 151.656 196.351 151.074 194.59 150.814C193.739 150.686 192.792 150.596 192.213 149.959C191.572 149.255 191.643 148.178 191.75 147.233C192.088 144.298 192.425 141.364 192.762 138.432C192.872 137.17 193.086 135.92 193.401 134.693C193.518 134.285 193.657 133.884 193.8 133.483C193.995 132.93 194.193 132.378 194.342 131.81C194.556 130.893 194.706 129.962 194.79 129.024C195.136 126.071 195.554 123.125 195.92 120.175L195.939 120.019C196.488 115.547 196.906 111.054 196.785 106.549C196.768 105.883 196.74 105.216 196.697 104.547C196.637 103.577 196.548 103.064 197.349 102.457C198.234 101.788 199.398 101.32 200.41 100.882C200.955 100.644 206.952 98.5098 207.092 98.9782C207.373 99.9772 207.521 101.009 207.531 102.047C207.535 103.321 207.468 104.594 207.331 105.861Z" fill="#202020"/>
<path opacity="0.1" d="M204.724 130.942C204.498 132.196 204.233 133.444 203.919 134.681C203.045 138.114 201.777 141.471 201.368 144.991C201.355 145.092 201.345 145.196 201.334 145.299C198.66 141.471 196.409 137.353 193.8 133.483C193.996 132.93 194.194 132.378 194.342 131.81C194.556 130.893 194.706 129.962 194.79 129.024C195.137 126.071 195.554 123.125 195.92 120.175L195.939 120.019C196.093 120.646 196.311 121.254 196.592 121.835C198.344 125.404 202.507 127.209 204.543 130.625C204.606 130.731 204.666 130.837 204.724 130.942Z" fill="black"/>
<path d="M183.03 99.5525C183.119 102.416 183.576 105.253 184.032 108.081L184.973 113.915C185.488 117.108 186.025 120.366 187.532 123.226C188.659 125.366 190.284 127.192 191.753 129.111C195.365 133.83 198.079 139.175 201.505 144.032C202.5 145.444 203.924 146.97 205.623 146.676C206.738 146.482 207.548 145.551 208.425 144.833C209.458 143.987 210.704 143.368 211.517 142.307C212.33 141.246 212.49 139.483 211.388 138.729C210.989 138.507 210.566 138.333 210.127 138.211C208.419 137.56 207.314 135.888 206.61 134.197C205.907 132.506 205.481 130.688 204.543 129.115C202.507 125.699 198.344 123.894 196.591 120.323C195.609 118.323 195.516 116.018 195.441 113.79L195.249 108.111C195.228 107.49 195.212 106.844 195.464 106.276C196.134 104.764 198.159 104.623 199.797 104.432C201.658 104.213 203.46 103.643 205.108 102.752C206.052 102.241 206.975 101.589 207.48 100.64C207.94 99.7742 208.004 98.7586 208.058 97.7787L208.625 87.4864C208.674 86.6009 208.719 85.6853 208.407 84.8552C207.626 82.7708 205.001 82.0896 202.782 82.1891C198.653 82.3742 194.842 84.1549 190.949 85.3575C189.984 85.6625 189.005 85.9185 188.015 86.1246C187.142 86.3004 186.084 86.2274 185.251 86.5091C183.769 87.01 183.807 90.2594 183.597 91.6072C183.163 94.2323 182.973 96.8922 183.03 99.5525Z" fill="#202020"/>
<path d="M205.061 147.107C205.425 147.475 205.544 148.015 205.639 148.524C206.164 151.351 206.438 154.22 206.456 157.095C206.432 157.364 206.485 157.633 206.61 157.872C206.712 158.014 206.851 158.126 207.012 158.196C208.064 158.699 209.286 157.998 210.162 157.228C211.788 155.8 213.163 153.884 213.256 151.719C213.239 151.162 213.258 150.604 213.314 150.049C213.457 149.234 213.931 148.524 214.35 147.811C215.061 146.596 215.635 145.306 216.061 143.964C216.221 143.46 216.327 142.825 215.933 142.473C215.793 142.363 215.635 142.28 215.465 142.229L210.711 140.459C210.299 140.306 209.274 142.946 209.112 143.234C208.714 143.94 208.318 144.341 207.52 144.504C206.705 144.67 205.735 144.432 204.974 144.839C203.688 145.529 204.332 146.371 205.061 147.107Z" fill="#535070"/>
<path d="M197.727 148.736C197.639 148.56 197.516 148.404 197.365 148.276C197.145 148.136 196.895 148.051 196.636 148.028C195.731 147.874 194.658 147.772 194.034 148.447C193.448 149.079 193.549 150.109 193.059 150.818C192.904 151.043 192.694 151.228 192.56 151.466C192.393 151.829 192.318 152.228 192.341 152.627C192.315 153.727 192.29 154.829 192.366 155.926C192.429 156.846 192.584 157.81 193.158 158.53C194.078 159.687 195.739 159.853 197.213 159.928L198.407 159.989C198.735 160.029 199.069 159.998 199.385 159.899C199.581 159.808 199.756 159.679 199.901 159.519C200.046 159.359 200.157 159.172 200.229 158.968C200.85 157.419 199.866 155.751 199.26 154.196C198.563 152.41 198.688 150.426 197.727 148.736Z" fill="#535070"/>
<path d="M187.846 34.7644C187.832 34.6074 187.855 34.4492 187.913 34.3029C188.088 33.9929 188.545 34.0773 188.889 34.1643C190.274 34.5145 191.734 34.1975 193.16 34.2793C194.586 34.3611 196.192 35.0759 196.479 36.4789C197.514 35.7431 198.406 34.8239 199.111 33.7666C199.507 33.1728 199.852 32.4926 199.798 31.7804C199.721 30.7532 198.861 29.985 198.065 29.3336L195.693 27.3917C195.381 27.1047 195.022 26.8755 194.63 26.7145C194.083 26.5268 193.485 26.6162 192.906 26.6166C191.179 26.6177 189.338 25.8297 187.802 26.6213C187.16 26.952 186.677 27.5187 186.212 28.0712L184.094 30.5844C183.935 30.7446 183.818 30.9425 183.756 31.1599C183.695 31.4667 183.853 31.7694 183.907 32.0772C184.007 32.6386 183.766 33.2378 183.952 33.777C184.26 34.6721 185.343 34.7988 186.006 35.312C186.253 35.5032 186.64 36.1514 186.934 36.1435C187.465 36.1292 187.833 35.178 187.846 34.7644Z" fill="#3F3D56"/>
<path d="M191.44 42.1724C195.185 42.1724 198.221 39.1285 198.221 35.3738C198.221 31.619 195.185 28.5752 191.44 28.5752C187.695 28.5752 184.659 31.619 184.659 35.3738C184.659 39.1285 187.695 42.1724 191.44 42.1724Z" fill="#A0616A"/>
<path d="M193.028 50.2526C192.798 49.5919 192.364 49.0219 191.789 48.6251C191.214 48.2284 190.528 48.0256 189.83 48.0462C189.63 48.0835 189.424 48.0573 189.24 47.9714C189.136 47.8912 189.053 47.787 188.998 47.6676C188.585 46.9242 188.254 46.1385 188.009 45.3241C187.901 44.9643 187.753 44.54 187.39 44.4465C187.24 44.4267 187.087 44.4483 186.948 44.509C186.809 44.5696 186.689 44.667 186.601 44.7907C186.428 45.0397 186.24 45.2772 186.037 45.5016C185.184 46.2661 183.672 45.5693 182.767 46.2707C182.619 46.3853 182.497 46.532 182.342 46.6362C182.186 46.7301 182.019 46.8021 181.844 46.8503C180.096 47.4224 178.382 48.0953 176.712 48.8655C177.314 52.5011 177.931 56.2 179.342 59.6028C180.014 61.2221 180.775 62.8081 181.313 64.4769C182.504 68.1746 182.557 72.1308 182.571 76.0167C182.58 78.6762 182.567 81.3924 181.708 83.9089C181.478 84.4651 181.315 85.0472 181.224 85.6426C181.172 86.2423 181.346 86.9035 181.831 87.2588C182.112 87.443 182.433 87.5562 182.767 87.5885C184.254 87.8073 185.753 87.4105 187.217 87.0705C191.142 86.1593 195.144 85.6379 199.139 85.1178L205.833 84.2463C206.313 84.2137 206.782 84.092 207.218 83.8875C208.443 83.215 208.559 81.3676 207.798 80.1934C207.434 79.6304 206.919 79.1686 206.613 78.5718C206.306 77.9749 206.28 77.1403 206.808 76.727C207.881 75.8861 207.561 74.326 207.612 72.9615C207.755 69.1462 207.736 65.3295 207.554 61.5112C207.5 60.7208 207.487 59.9281 207.516 59.1364C207.635 57.7949 207.882 56.4678 208.254 55.1737L210.288 47.1438C209.757 46.3019 208.739 45.7678 207.776 45.5253C206.812 45.2828 205.808 45.2114 204.859 44.9165C202.914 44.3124 201.183 42.7793 199.153 42.9222C198.999 42.925 198.848 42.9619 198.71 43.0305C198.252 43.2906 198.325 43.9524 198.296 44.4793C198.231 45.6452 197.376 46.6196 196.431 47.3027C195.487 47.9859 194.408 48.484 193.541 49.2631C193.387 49.3793 193.261 49.5284 193.172 49.6996C193.084 49.8708 193.034 50.0598 193.028 50.2526Z" fill="#006ADA"/>
<path d="M166.16 57.8692C165.71 58.1617 165.232 58.4082 164.734 58.605C164.245 58.7507 163.784 58.9752 163.367 59.2698C163.176 59.4362 163.015 59.6355 162.892 59.8583C162.663 60.2665 162.547 60.7289 162.556 61.1973C162.566 61.6657 162.7 62.123 162.946 62.5214C163.192 62.9198 163.54 63.2447 163.954 63.4622C164.368 63.6797 164.833 63.7819 165.299 63.7579C165.92 63.6883 166.522 63.508 167.079 63.2258L171.862 61.1479C172.671 60.7962 173.546 60.384 173.928 59.587C173.973 59.5127 173.99 59.4248 173.975 59.3393C173.936 59.2489 173.867 59.1754 173.779 59.1322C172.7 58.4298 171.756 57.5379 170.994 56.4994C170.798 56.2323 170.557 55.6016 170.28 55.4414C169.268 54.8569 166.97 57.342 166.16 57.8692Z" fill="#A0616A"/>
<path d="M217.288 56.1642L219.052 58.1837C219.43 58.6172 219.809 59.0513 220.154 59.5121C221.001 60.6829 221.681 61.9668 222.174 63.3265C222.557 64.3349 222.875 65.409 222.741 66.4797C222.652 67.0287 222.504 67.5663 222.3 68.0834C221.977 69.0777 221.576 70.0451 221.102 70.9766C220.703 71.6843 220.252 72.3614 219.754 73.0024C218.388 74.8165 216.895 76.5297 215.284 78.1285C214.681 78.7268 214.428 79.6942 214.166 80.5029C213.682 81.9946 212.53 83.1565 211.417 84.2582C211.059 84.6371 210.663 84.9784 210.236 85.2767C209.596 85.6899 208.849 85.9034 208.088 85.8902C207.755 85.8925 207.425 85.8241 207.12 85.6893C206.358 85.3265 205.971 84.4429 205.891 83.6007C205.82 82.8365 205.948 82.0668 206.262 81.3668C207.274 79.1195 209.872 78.1457 211.708 76.506C212.785 75.5446 213.609 74.3368 214.421 73.1422C214.973 72.3963 215.433 71.5869 215.793 70.7311C216.203 69.6338 216.044 68.3348 216.402 67.2194C216.553 66.748 216.823 66.3223 216.986 65.8546C217.148 65.387 217.189 64.8319 216.905 64.4272C216.69 64.17 216.416 63.9689 216.106 63.8412C214.933 63.2442 213.619 62.4758 213.394 61.176C213.305 60.4552 213.493 59.7272 213.92 59.1404C214.345 58.5614 214.842 58.039 215.399 57.5857C215.912 57.1308 216.775 56.6191 217.288 56.1642Z" fill="#A0616A"/>
<path d="M165.029 60.6882C164.717 60.0576 164.328 59.4142 163.7 59.1007C163.395 58.9681 163.067 58.899 162.735 58.8976C162.403 58.8962 162.074 58.9625 161.768 59.0926C161.159 59.3559 160.589 59.7017 160.073 60.1203L158.553 61.2436C158.209 61.4702 157.904 61.7524 157.651 62.0787C157.411 62.4744 157.252 62.9137 157.181 63.3714C156.916 64.4152 156.835 65.4973 156.942 66.569C157.183 68.2874 158.217 69.7876 159.354 71.0957C160.065 71.913 160.942 72.7379 162.023 72.7727C162.49 72.7878 163.009 72.6034 163.203 72.1777C163.27 72.0089 163.305 71.8292 163.308 71.6475C163.425 69.7308 162.741 67.8586 161.943 66.1127C161.689 65.6556 161.539 65.1477 161.503 64.6255C161.498 64.5376 161.521 64.4502 161.568 64.3764C161.637 64.3046 161.729 64.2596 161.828 64.2494C162.919 64.0329 164.799 64.883 165.565 63.6678C166.061 62.88 165.381 61.4026 165.029 60.6882Z" fill="#A0616A"/>
<path d="M187.492 32.625C187.477 32.468 187.5 32.3098 187.559 32.1636C187.734 31.8536 188.19 31.9379 188.535 32.025C189.92 32.3751 191.379 32.0582 192.805 32.14C194.231 32.2218 195.837 32.9366 196.124 34.3395C197.159 33.6038 198.051 32.6846 198.757 31.6272C199.153 31.0334 199.498 30.3532 199.444 29.6411C199.366 28.6139 198.507 27.8457 197.711 27.1942L195.338 25.2523C195.027 24.9654 194.667 24.7361 194.276 24.5752C193.728 24.3875 193.131 24.4769 192.552 24.4773C190.825 24.4784 188.983 23.6903 187.447 24.482C186.806 24.8126 186.323 25.3793 185.857 25.9319L183.74 28.445C183.58 28.6052 183.464 28.8032 183.401 29.0205C183.341 29.3273 183.498 29.6301 183.553 29.9378C183.653 30.4993 183.412 31.0985 183.597 31.6377C183.905 32.5328 184.989 32.6595 185.652 33.1726C185.899 33.3639 186.286 34.012 186.58 34.0041C187.111 33.9898 187.478 33.0386 187.492 32.625Z" fill="#3F3D56"/>
<path d="M173.091 51.2564C172.817 51.4334 172.577 51.6577 172.381 51.9189C172.132 52.2957 172.082 52.7715 171.868 53.1694C171.411 54.0208 170.342 54.3237 169.676 55.0222C169.57 55.1183 169.496 55.2449 169.465 55.3846C169.462 55.5742 169.525 55.7589 169.644 55.9063L172.859 60.9745C173.93 61.069 174.957 60.3965 176.028 60.4858C176.428 60.5191 176.837 60.6576 177.221 60.5391C177.495 60.4171 177.753 60.2593 177.986 60.0699C178.625 59.6648 179.476 59.6176 180.012 59.0831C180.527 58.5702 180.592 57.7677 180.586 57.0403C180.595 56.4086 180.531 55.778 180.395 55.1611C179.922 53.2157 178.438 51.7228 177.507 49.9996C177.054 49.1606 176.808 48.6695 175.849 49.2455C174.886 49.8245 173.998 50.5915 173.091 51.2564Z" fill="#006ADA"/>
<path d="M212.141 48.6933C212.745 49.0867 213.29 49.5651 213.759 50.1139C214.248 50.7471 214.526 51.5222 214.996 52.17C215.452 52.7979 216.073 53.2842 216.591 53.8624C217.375 54.7393 217.907 55.8091 218.428 56.8646C217.154 58.5313 215.764 60.1063 214.269 61.5777C214.103 61.7743 213.884 61.9188 213.638 61.994C213.47 62.0118 213.301 61.9878 213.146 61.9241C212.99 61.8604 212.852 61.759 212.745 61.629C212.513 61.3854 212.349 61.0851 212.128 60.8322C211.605 60.2917 210.909 59.9541 210.162 59.8789C209.422 59.8072 208.677 59.7969 207.935 59.8482C207.772 59.8664 207.607 59.8386 207.459 59.768C207.349 59.6919 207.26 59.5892 207.2 59.4695C206.329 57.9843 206.609 56.1195 206.916 54.4244L207.621 50.535C207.723 49.7922 207.92 49.0656 208.207 48.3733C208.474 47.8013 209.071 46.8313 209.805 47.0026C210.545 47.1752 211.519 48.2443 212.141 48.6933Z" fill="#006ADA"/>
<path d="M83.1398 74.2321C89.0607 74.2321 93.8606 69.4108 93.8606 63.4634C93.8606 57.5161 89.0607 52.6948 83.1398 52.6948C77.2188 52.6948 72.4189 57.5161 72.4189 63.4634C72.4189 69.4108 77.2188 74.2321 83.1398 74.2321Z" fill="white"/>
<path d="M83.1389 50.8595C80.6047 50.8595 78.1275 51.6129 76.0205 53.0245C73.9135 54.4361 72.2712 56.4425 71.3015 58.7899C70.3317 61.1373 70.078 63.7203 70.5724 66.2123C71.0667 68.7043 72.287 70.9933 74.0789 72.7899C75.8708 74.5865 78.1538 75.8101 80.6392 76.3057C83.1246 76.8014 85.7008 76.547 88.0421 75.5747C90.3833 74.6024 92.3843 72.9558 93.7922 70.8432C95.2001 68.7306 95.9515 66.2468 95.9515 63.706C95.9416 60.302 94.5885 57.0402 92.1878 54.6332C89.7871 52.2261 86.5339 50.8695 83.1389 50.8595ZM80.5086 70.5555L73.9421 63.9716L75.7839 62.1249L80.5147 66.8683L90.5 56.8566L92.3418 58.7033L80.5086 70.5555L80.5086 70.5555Z" fill="#57B894"/>
</g>
<defs>
<clipPath id="clip0">
<rect width="265" height="160" fill="white"/>
</clipPath>
</defs>
</svg>
